<?xml version="1.0" standalone="no"?>
<!DOCTYPE svg PUBLIC "-//W3C//DTD SVG 20010904//EN"
 "http://www.w3.org/TR/2001/REC-SVG-20010904/DTD/svg10.dtd">
<svg version="1.0" xmlns="http://www.w3.org/2000/svg"
 width="1024.000000pt" height="1024.000000pt" viewBox="0 0 1024.000000 1024.000000"
 preserveAspectRatio="xMidYMid meet">

<g transform="translate(0.000000,1024.000000) scale(0.100000,-0.100000)"
fill="#000000" stroke="none">
<path d="M4809 9940 c-52 -9 -146 -54 -228 -110 -86 -58 -225 -124 -420 -199
-211 -82 -241 -97 -306 -150 -44 -37 -54 -41 -87 -36 -32 6 -41 2 -77 -30 -42
-38 -46 -49 -90 -213 -14 -53 -17 -81 -10 -104 6 -21 5 -36 -3 -45 -18 -22
-13 -178 6 -208 21 -32 12 -32 -31 1 -48 37 -41 17 20 -51 28 -32 44 -56 35
-52 -13 4 -18 1 -18 -10 0 -25 -49 23 -68 67 -13 29 -16 32 -20 15 -2 -11 -9
-25 -14 -32 -17 -21 -14 -97 6 -143 30 -67 82 -136 117 -153 l32 -15 2 -359
c2 -317 6 -403 31 -595 l6 -46 -56 -7 c-74 -10 -136 -42 -160 -83 -20 -36 -34
-187 -22 -237 6 -25 61 -59 78 -49 5 3 8 2 8 -3 0 -22 33 -204 47 -262 24
-102 67 -184 121 -233 l48 -43 12 -270 c7 -148 19 -315 27 -370 53 -347 162
-590 370 -825 140 -158 207 -292 239 -477 21 -118 21 -121 -11 -129 -45 -11
-82 -33 -130 -77 -129 -119 -239 -321 -314 -576 -32 -110 -34 -114 -69 -128
-129 -53 -281 -127 -378 -186 -107 -64 -119 -69 -240 -93 -378 -75 -723 -171
-977 -274 -44 -17 -83 -34 -87 -36 -10 -7 124 -182 244 -320 198 -229 509
-488 784 -655 473 -285 890 -428 1464 -501 163 -20 718 -17 890 5 438 58 853
181 1200 357 526 267 960 644 1295 1124 88 127 217 348 207 358 -20 20 -434
192 -622 258 l-134 48 -12 58 c-6 33 -15 68 -19 79 -20 48 -79 129 -152 206
-142 152 -186 235 -185 354 1 90 -10 131 -47 176 -56 68 -161 97 -284 80 -39
-6 -82 -13 -93 -17 -20 -5 -23 1 -43 108 -40 212 -26 337 72 648 30 96 65 218
78 270 13 52 25 97 26 99 2 3 17 -6 34 -18 34 -25 85 -37 123 -27 42 10 95 64
108 109 7 25 35 69 68 107 166 190 240 383 240 619 0 104 -18 199 -50 260 -26
52 -96 110 -140 117 l-35 6 -1 251 c0 387 -24 605 -105 982 -25 117 -52 214
-70 252 -18 38 -29 79 -29 105 0 70 -28 178 -64 253 -32 66 -67 118 -178 264
-25 33 -54 82 -64 108 -69 191 -105 249 -169 272 -30 11 -42 11 -61 1 -21 -12
-27 -10 -56 20 -164 163 -422 275 -748 325 -58 9 -125 22 -150 30 -77 23 -109
25 -152 10 -40 -13 -45 -13 -90 10 -81 41 -120 48 -183 31 -48 -12 -62 -12
-108 0 -56 15 -106 16 -178 4z m-1189 -818 c0 -7 -4 -10 -10 -7 -5 3 -10 16
-10 28 0 18 2 19 10 7 5 -8 10 -21 10 -28z m1964 -168 c248 -22 438 -68 570
-138 113 -60 282 -250 358 -402 44 -88 52 -114 60 -190 20 -196 40 -299 79
-407 58 -160 78 -181 54 -53 -8 43 -15 99 -14 124 1 35 5 22 16 -53 7 -54 23
-120 35 -145 16 -36 78 -207 78 -216 0 -1 -43 13 -96 31 -61 21 -108 44 -128
63 -47 45 -67 52 -187 68 -106 13 -113 16 -187 65 -71 48 -83 52 -162 60 -53
6 -137 6 -224 -1 -145 -11 -196 -8 -80 5 37 4 77 11 88 15 27 11 -127 1 -174
-11 -19 -5 -51 -9 -70 -9 -19 -1 -46 -7 -60 -15 -14 -8 -35 -14 -47 -15 -33 0
-138 -65 -172 -107 l-31 -37 10 33 c5 18 16 44 25 57 8 13 11 24 6 24 -6 0
-32 -44 -58 -97 -39 -81 -48 -93 -51 -71 -2 15 4 50 12 79 9 29 14 55 11 57
-6 7 -24 -43 -37 -103 -6 -27 -16 -56 -23 -63 -28 -32 -290 -60 -395 -42 -69
12 -72 13 -104 61 -31 46 -116 129 -132 129 -4 0 7 -16 26 -35 30 -31 47 -65
33 -65 -4 0 -20 11 -37 24 -42 32 -97 60 -121 63 -11 2 -49 5 -85 8 -36 2 -83
7 -105 10 -39 5 -40 5 -15 -10 22 -14 22 -15 4 -10 -31 8 -149 -12 -198 -34
-23 -10 -66 -22 -96 -26 -57 -7 -170 -51 -170 -66 0 -5 -7 -9 -16 -9 -14 0
-15 11 -9 88 21 284 47 453 85 554 64 171 331 497 479 585 29 18 89 35 185 54
77 16 188 42 245 58 l104 29 -99 -100 c-54 -55 -136 -125 -181 -155 -127 -84
-126 -97 0 -31 90 47 220 163 279 248 l33 49 120 31 c245 66 295 69 569 44z
m-2041 -203 c9 -16 17 -40 16 -53 -1 -20 -3 -18 -16 12 -8 19 -22 43 -30 53
-14 14 -14 17 -2 17 8 0 22 -13 32 -29z m2122 -1011 c-11 -5 -27 -9 -35 -9
-13 -1 -13 0 0 9 8 5 24 9 35 9 l20 0 -20 -9z m-1455 -130 c23 -7 22 -8 -10
-9 -19 0 -42 4 -50 9 -12 8 -10 10 10 9 14 -1 36 -5 50 -9z m2058 -60 c100
-17 163 -42 186 -73 18 -25 21 -41 19 -130 -3 -189 -63 -467 -118 -547 -56
-82 -241 -136 -495 -147 -229 -9 -405 24 -468 90 -80 83 -192 398 -192 539 0
111 126 193 370 243 209 43 529 54 698 25z m-2383 -20 c-3 -5 -14 -10 -23 -9
-14 0 -13 2 3 9 27 11 27 11 20 0z m500 -90 c106 -12 221 -44 255 -71 l25 -19
-35 14 c-70 28 -355 -19 -625 -104 -114 -35 -220 -78 -212 -86 2 -2 27 5 55
16 29 11 60 20 69 20 15 0 14 -2 -3 -15 -11 -9 -3 -8 21 4 41 20 113 41 311
91 96 24 122 27 188 20 44 -4 84 -14 94 -22 34 -30 84 -51 92 -38 5 8 16 9 31
5 13 -5 26 -8 29 -7 3 0 13 -4 22 -9 11 -6 18 -5 21 4 3 6 6 1 6 -13 1 -29 21
-66 21 -40 0 38 -25 98 -53 129 l-32 34 34 -23 c18 -13 40 -38 47 -56 46 -110
-35 -459 -132 -573 -68 -79 -210 -128 -401 -138 -173 -9 -354 28 -388 80 -14
22 -28 154 -40 372 -3 61 -8 126 -10 145 -2 19 -7 74 -10 122 -6 82 -5 87 15
98 105 56 388 84 605 60z m-816 -22 c-2 -2 -16 -14 -31 -27 -16 -14 -28 -22
-28 -18 0 10 42 47 54 47 5 0 7 -1 5 -2z m3104 -21 c60 -26 95 -64 106 -118
27 -124 61 -340 59 -375 l-1 -39 -4 35 c-2 19 -15 93 -29 164 -13 71 -27 154
-31 184 -7 59 -35 102 -84 127 -35 18 -89 20 -89 3 0 -7 -3 -31 -7 -52 -4 -29
-3 -37 6 -32 15 10 110 -19 141 -43 21 -17 27 -37 47 -153 12 -73 22 -149 22
-169 1 -20 8 -54 17 -74 16 -40 28 -169 14 -160 -4 2 -10 23 -13 46 -3 23 -11
47 -17 53 -9 8 -11 6 -7 -9 14 -50 19 -79 12 -73 -4 4 -13 31 -21 60 -9 40
-12 46 -13 23 0 -16 8 -57 18 -90 10 -33 21 -80 25 -105 7 -44 6 -44 -29 29
-40 84 -58 92 -21 10 24 -55 45 -148 26 -119 -5 8 -10 26 -10 40 0 14 -8 36
-16 50 -10 17 -13 19 -9 5 4 -11 11 -49 15 -85 4 -36 11 -74 15 -85 6 -15 5
-17 -4 -9 -7 6 -16 37 -20 68 -10 75 -21 82 -21 15 0 -41 -3 -50 -11 -39 -8
11 -9 -7 -6 -65 2 -44 1 -93 -3 -110 -6 -22 -8 -10 -9 45 -2 87 -21 80 -21 -8
0 -29 -4 -51 -8 -48 -5 3 -5 -17 -2 -44 3 -27 3 -47 -2 -44 -4 3 -8 22 -9 42
l-1 37 -9 -30 c-5 -18 -5 -43 0 -62 6 -20 6 -33 0 -33 -5 0 -9 7 -9 15 0 8 -5
15 -11 15 -8 0 -10 17 -6 55 3 30 2 53 -2 50 -5 -2 -11 -30 -15 -61 -5 -47 -4
-59 11 -70 15 -11 15 -13 3 -14 -12 0 -15 -8 -12 -37 4 -34 3 -36 -11 -21 -9
8 -20 31 -25 49 l-10 34 -1 -35 c-3 -105 -21 -171 -34 -122 -3 12 -5 9 -6 -8
-2 -24 -3 -23 -22 10 l-20 35 6 -30 c8 -38 8 -59 -1 -117 -4 -33 -3 -53 6 -63
7 -9 10 -18 7 -21 -3 -3 -20 23 -37 58 -26 52 -30 70 -25 105 4 27 2 44 -6 49
-9 5 -11 -14 -7 -76 4 -75 3 -81 -10 -64 -15 20 -15 16 5 -33 4 -10 3 -14 -5
-9 -6 3 -13 2 -17 -4 -7 -11 14 -55 22 -46 3 3 0 12 -7 21 -10 12 -10 15 4 15
12 0 16 -9 16 -36 l0 -35 -26 28 c-14 15 -33 41 -41 56 -8 16 -17 27 -19 24
-3 -3 5 -25 18 -49 54 -103 59 -134 7 -45 -29 50 -32 33 -3 -26 10 -21 10 -27
1 -24 -7 2 -19 29 -27 59 -15 58 -39 97 -26 44 4 -15 9 -42 12 -60 l6 -31 -16
29 c-9 15 -16 36 -17 45 -1 9 -4 5 -8 -9 -7 -23 -4 -45 14 -95 4 -11 -2 -7
-14 10 -14 20 -21 47 -22 80 l-2 50 -7 -40 c-7 -42 -9 -39 -23 30 -3 11 -5 2
-6 -20 0 -25 7 -51 19 -70 28 -42 25 -56 -3 -21 l-24 29 -1 -32 c0 -17 8 -52
19 -77 12 -25 19 -48 16 -50 -3 -3 -13 15 -22 40 -10 25 -23 51 -31 57 -7 6
-16 24 -19 40 -4 16 -10 27 -15 24 -4 -2 3 -46 16 -96 13 -50 24 -94 24 -98
-2 -25 -60 135 -60 166 -1 17 -1 17 -11 1 -6 -12 -6 -24 0 -36 5 -9 21 -51 35
-91 14 -40 31 -81 38 -90 6 -9 3 -7 -9 4 -11 11 -31 49 -43 84 -24 66 -39 71
-21 7 5 -20 8 -36 5 -36 -2 0 -15 21 -28 48 -32 61 -34 25 -3 -39 16 -32 19
-45 10 -42 -15 6 -41 52 -54 93 -7 24 -7 24 -8 2 -1 -12 6 -38 13 -57 8 -19
13 -35 11 -35 -3 0 0 -11 5 -25 15 -39 2 -29 -15 12 -18 44 -31 38 -17 -9 6
-18 13 -49 16 -68 5 -35 5 -35 -9 -10 -8 14 -15 34 -15 45 -1 20 -1 20 -9 0
-7 -18 -9 -17 -25 13 -9 17 -19 32 -21 32 -8 0 16 -55 33 -74 16 -18 16 -18
-6 -7 -13 7 -26 19 -29 27 -3 8 -11 14 -18 14 -8 0 -17 9 -20 21 -4 11 -9 18
-13 15 -3 -4 5 -26 17 -51 23 -46 25 -86 5 -92 -7 -2 -17 11 -23 28 -6 18 -14
29 -17 26 -4 -3 -2 -20 4 -36 18 -51 3 -35 -23 24 -14 30 -29 55 -35 55 -6 0
-4 -12 4 -29 9 -16 20 -46 25 -67 5 -22 12 -48 16 -59 4 -11 -7 -1 -26 22 -24
32 -35 39 -41 29 -8 -14 -4 -48 8 -69 5 -8 2 -8 -9 2 -20 16 -23 2 -4 -19 6
-8 -1 -4 -16 10 l-29 25 7 -30 c4 -16 12 -34 16 -39 5 -6 9 -15 9 -20 -1 -6
-8 -2 -18 9 -9 12 -25 24 -35 28 -9 3 -22 18 -27 33 -6 15 -13 24 -16 21 -6
-6 9 -41 40 -92 l19 -30 -27 30 c-17 18 -25 23 -22 13 3 -10 0 -18 -6 -18 -6
0 -4 -8 5 -18 22 -24 22 -39 0 -21 -9 8 -18 13 -19 12 -12 -8 -38 15 -55 48
-11 22 -21 39 -24 39 -5 0 21 -67 40 -102 17 -31 19 -42 5 -33 -14 8 -13 1 5
-41 22 -53 3 -32 -30 32 -16 31 -31 52 -33 45 -3 -9 -10 -7 -23 5 -24 22 -25
7 0 -20 10 -12 21 -36 25 -55 l6 -34 -30 38 c-16 21 -30 31 -30 24 0 -8 9 -22
20 -32 11 -9 20 -22 20 -27 0 -7 -6 -7 -20 0 -11 6 -20 14 -20 19 0 12 -62
102 -67 98 -2 -3 10 -26 26 -53 35 -54 40 -75 13 -51 -18 16 -18 15 -15 -16 3
-30 2 -29 -16 13 -14 31 -20 38 -20 23 -1 -12 3 -33 9 -47 6 -18 6 -26 -1 -26
-6 0 -7 -4 -4 -10 15 -25 -13 -6 -34 23 -13 17 -20 23 -16 12 5 -11 10 -38 12
-60 3 -40 3 -40 -9 -10 -9 25 -12 26 -17 12 -4 -11 -12 13 -20 60 -14 85 -20
108 -25 102 -2 -2 1 -31 5 -64 5 -33 11 -87 13 -120 l5 -60 -10 60 c-6 33 -15
63 -20 66 -6 3 -9 10 -8 15 1 5 1 16 0 24 -3 19 -28 -68 -41 -135 -8 -45 -8
-42 -7 38 2 72 0 84 -10 70 -7 -9 -13 -28 -13 -42 0 -14 -5 -33 -10 -41 -8
-12 -10 -9 -6 10 3 14 7 52 10 85 4 54 3 56 -5 20 -23 -97 -27 -101 -23 -25
l4 75 -15 -75 c-11 -58 -12 -76 -2 -82 9 -6 9 -10 0 -16 -6 -4 -13 -30 -15
-57 -2 -28 -5 -7 -5 44 -1 52 3 104 8 115 9 18 7 17 -10 -3 -16 -18 -21 -38
-22 -85 l-1 -61 -11 45 -10 45 -7 -38 c-4 -21 -13 -43 -20 -50 -10 -10 -11 -7
-5 13 4 14 9 43 11 65 l3 40 -13 -45 -14 -45 4 65 c2 47 1 57 -5 35 -5 -16 -9
-44 -10 -61 -1 -19 -7 -34 -17 -38 -13 -5 -16 0 -12 29 2 19 0 35 -4 35 -4 0
-8 -28 -9 -62 0 -44 -3 -57 -9 -43 -8 18 -6 62 5 170 3 29 2 34 -4 19 -5 -11
-12 -56 -16 -99 -6 -62 -10 -74 -16 -56 -5 12 -6 28 -3 34 3 7 -7 -1 -21 -17
l-27 -30 5 55 6 54 -14 -53 c-15 -61 -25 -76 -25 -41 -1 23 -2 22 -15 -6 -18
-39 -19 -17 -1 26 18 44 31 106 20 96 -5 -5 -14 -23 -21 -40 -11 -29 -12 -25
-8 38 5 74 4 74 -28 -40 -9 -33 -12 -36 -15 -17 -3 19 -6 21 -18 11 -18 -15
-20 11 -1 30 8 10 8 12 0 7 -7 -4 -13 4 -15 21 -4 25 -5 24 -12 -12 -11 -60
-36 -125 -48 -125 -7 0 -8 14 -5 35 3 19 2 35 -4 35 -5 0 -9 -8 -9 -19 0 -20
-39 -75 -47 -67 -3 3 2 15 11 28 9 12 16 32 16 43 0 12 7 30 15 41 16 21 20
69 5 59 -5 -3 -10 -15 -10 -25 0 -11 -14 -34 -31 -52 l-30 -33 16 35 17 35
-26 -30 c-14 -16 -25 -40 -26 -52 0 -12 -4 -25 -10 -28 -15 -9 -12 12 6 51 9
19 14 37 11 40 -2 3 2 26 9 51 17 55 18 77 4 68 -5 -3 -10 -15 -10 -25 0 -11
-8 -38 -17 -62 -14 -35 -18 -38 -24 -22 -6 16 -8 16 -8 2 -1 -9 -5 -20 -11
-23 -6 -4 -7 2 -1 17 5 13 14 22 20 20 7 -1 11 14 11 38 0 46 -15 54 -23 12
-3 -15 -20 -38 -38 -51 l-33 -24 23 37 c13 20 21 40 18 42 -3 3 -12 -3 -19
-15 -7 -12 -16 -21 -21 -21 -4 0 -5 5 -2 10 3 6 2 10 -4 10 -6 0 4 23 21 50
17 28 29 52 26 55 -3 3 -18 -15 -33 -40 -16 -24 -31 -42 -34 -40 -2 3 -13 -3
-24 -12 -18 -17 -18 -17 -4 12 21 42 41 114 34 121 -3 4 -9 -5 -12 -19 -4 -14
-15 -33 -26 -43 -20 -18 -27 -6 -8 13 8 8 8 13 -1 18 -7 4 -14 -1 -17 -14 -3
-12 -10 -21 -15 -21 -5 0 2 21 17 46 15 25 24 48 22 51 -3 2 -10 -5 -17 -16
-6 -12 -15 -19 -20 -16 -5 3 -16 -5 -24 -17 -9 -12 -16 -19 -16 -16 0 13 24
63 39 81 13 16 13 17 -2 12 -9 -4 -26 -27 -38 -51 -12 -25 -23 -43 -26 -40 -3
2 1 14 7 26 11 21 11 21 -15 4 -26 -17 -26 -17 6 35 18 28 30 54 26 57 -3 3
-13 -8 -22 -25 -16 -32 -32 -43 -21 -15 5 14 4 15 -9 4 -8 -7 -15 -9 -15 -6 0
4 -10 2 -22 -4 l-23 -11 23 18 c12 10 33 25 45 35 38 28 14 28 -28 -1 -33 -22
-43 -25 -53 -15 -9 10 -9 15 2 21 15 9 36 46 36 64 0 7 -14 -7 -30 -29 -31
-44 -47 -54 -35 -25 4 12 -5 7 -26 -12 -18 -17 -28 -23 -21 -14 7 10 14 25 17
35 2 11 6 27 10 36 8 21 -22 19 -35 -2 -5 -8 -11 -12 -14 -9 -3 3 6 22 19 42
14 20 25 39 25 44 0 4 -7 -3 -16 -15 -8 -12 -20 -19 -26 -16 -6 4 -9 3 -6 -2
3 -5 -10 -19 -30 -32 -28 -18 -33 -20 -21 -5 8 10 17 20 21 23 3 3 10 19 14
35 6 26 5 28 -8 18 -8 -7 -18 -10 -21 -6 -10 10 -8 45 2 39 5 -3 15 2 22 12
13 16 13 16 -5 2 -18 -14 -19 -13 -13 3 9 23 -2 22 -24 -4 -16 -19 -19 -20
-25 -5 -3 9 -10 14 -14 11 -12 -7 1 36 19 65 l15 25 -25 -22 c-14 -13 -28 -23
-31 -23 -3 0 -4 10 -1 23 l6 22 -22 -22 c-12 -13 -24 -23 -28 -23 -9 0 8 74
23 97 8 12 14 25 14 29 0 14 -35 -23 -63 -66 -16 -26 -26 -35 -22 -21 6 18 4
22 -6 16 -8 -5 0 7 17 26 17 19 29 40 26 48 -3 10 -9 8 -23 -10 l-19 -24 2 35
c1 19 5 44 10 55 5 11 -14 -4 -41 -33 -28 -29 -51 -51 -51 -48 0 3 16 28 35
55 19 26 35 51 35 55 0 14 -22 -7 -41 -38 -10 -17 -19 -24 -19 -16 0 10 -7 7
-21 -10 l-21 -25 15 25 c8 14 21 24 27 22 8 -2 10 3 6 13 -3 9 3 28 13 43 11
15 23 38 27 52 6 22 5 23 -10 11 -9 -7 -16 -19 -16 -26 0 -7 -8 -19 -17 -26
-11 -10 -14 -10 -9 -1 4 6 3 12 -3 12 -5 0 -11 -6 -14 -12 -2 -7 -8 -10 -12
-6 -5 4 7 31 24 60 l33 53 -33 -30 -32 -30 23 39 c13 22 18 36 12 32 -7 -4
-12 -2 -13 6 0 7 -9 -4 -18 -25 l-18 -38 -6 29 c-3 16 -3 39 0 51 8 33 -4 25
-26 -16 -11 -21 -20 -31 -21 -22 0 9 14 33 30 54 17 21 30 45 30 53 0 9 -14
-3 -31 -26 -32 -43 -46 -55 -30 -24 12 23 41 100 41 110 0 4 -7 -2 -15 -12
-13 -17 -15 -18 -21 -2 -4 9 -4 36 0 59 l6 42 -20 -25 c-24 -30 -25 -22 -5 27
13 31 13 34 0 23 -13 -10 -14 -1 -10 71 3 59 1 72 -4 44 l-8 -40 -2 36 c0 20
-4 77 -8 128 l-6 91 36 -15 c57 -23 213 -45 327 -45 194 1 335 33 441 101 112
73 176 193 234 440 51 213 52 215 86 229 48 20 117 17 138 -6 10 -10 39 -82
65 -159 61 -181 133 -331 186 -389 58 -62 125 -93 245 -111 191 -29 514 -13
650 31 129 42 213 110 259 208 42 88 87 294 122 554 4 26 9 32 30 32 13 0 39
-6 57 -13z m-2934 -122 c13 -105 40 -475 41 -554 0 -52 -1 -53 -18 -37 -27 23
-67 111 -86 184 -19 70 -46 245 -40 251 2 2 15 -1 28 -7 19 -8 27 -27 44 -94
12 -46 19 -65 16 -43 -3 22 -10 80 -14 128 -5 49 -12 92 -16 95 -4 4 -4 -12
-1 -36 3 -24 2 -41 -1 -39 -4 2 -21 9 -39 16 -36 14 -41 23 -49 95 -6 50 -5
54 26 79 17 15 36 27 41 27 5 0 9 -19 9 -42 0 -53 8 -46 11 10 2 26 9 47 18
52 9 5 17 8 17 7 1 -1 7 -42 13 -92z m3298 -231 c18 -14 33 -32 33 -40 0 -10
5 -12 13 -8 9 6 9 4 1 -7 -6 -8 -14 -31 -18 -52 -4 -21 -9 -46 -12 -55 -2 -9
2 -3 11 15 24 52 74 83 133 83 71 0 115 -28 146 -93 40 -82 49 -146 43 -297
-4 -111 -10 -149 -32 -215 -45 -132 -99 -223 -198 -334 -33 -37 -58 -77 -68
-107 -19 -62 -85 -118 -127 -107 -44 10 -72 34 -88 72 -19 44 -15 72 35 273
21 84 48 221 60 303 13 83 29 173 37 200 15 54 47 262 47 308 0 16 -10 38 -22
50 l-21 21 -2 -144 c0 -80 -3 -131 -4 -115 -6 49 -9 275 -5 275 2 0 19 -11 38
-26z m-290 -631 c-3 -10 -5 -2 -5 17 0 19 2 27 5 18 2 -10 2 -26 0 -35z
m-2906 -374 c-9 -22 -10 -22 -10 -3 -1 11 2 24 6 27 12 12 14 0 4 -24z m2423
-335 c3 -8 2 -12 -4 -9 -6 3 -10 10 -10 16 0 14 7 11 14 -7z m-2251 -9 c-3 -9
-8 -14 -10 -11 -3 3 -2 9 2 15 9 16 15 13 8 -4z m2388 -7 c11 -21 11 -22 -4
-9 -10 7 -17 17 -17 22 0 15 9 10 21 -13z m-170 -24 c5 -15 8 -29 5 -31 -2 -2
-8 10 -14 26 -13 38 -5 41 9 5z m-2230 -57 c-10 -9 -11 -8 -5 6 3 10 9 15 12
12 3 -3 0 -11 -7 -18z m139 -41 c0 -3 -4 -8 -10 -11 -5 -3 -10 -1 -10 4 0 6 5
11 10 11 6 0 10 -2 10 -4z m1998 -51 c-3 -3 -9 2 -12 12 -6 14 -5 15 5 6 7 -7
10 -15 7 -18z m72 -30 c0 -5 -5 -3 -10 5 -5 8 -10 20 -10 25 0 6 5 3 10 -5 5
-8 10 -19 10 -25z m-2080 21 c0 -2 -8 -10 -17 -17 -16 -13 -17 -12 -4 4 13 16
21 21 21 13z m30 -61 c-7 -8 -17 -15 -22 -15 -6 0 -5 7 2 15 7 8 17 15 22 15
6 0 5 -7 -2 -15z m1879 -50 c0 -5 -6 -1 -14 9 -8 11 -15 24 -15 30 0 5 7 1 15
-10 8 -10 14 -23 14 -29z m-129 -78 c0 -21 0 -21 -13 -2 -8 11 -17 31 -20 45
l-6 25 20 -24 c10 -13 19 -33 19 -44z m-1500 -21 c0 -2 -8 -10 -17 -17 -16
-13 -17 -12 -4 4 13 16 21 21 21 13z m2216 -309 c0 -202 3 -244 22 -326 23
-101 65 -200 106 -254 15 -19 26 -38 26 -44 0 -18 -157 -197 -261 -299 -159
-154 -555 -496 -706 -610 -137 -103 -378 -229 -519 -270 -48 -14 -61 -14 -78
-4 -19 12 -20 12 -7 -3 12 -15 10 -17 -16 -17 -41 0 -257 73 -387 131 -142 63
-243 127 -328 207 -75 71 -77 78 -54 171 40 157 51 280 50 571 -1 205 -6 307
-16 363 -11 54 -12 76 -4 74 6 -3 10 -9 9 -14 -5 -25 189 -159 334 -232 156
-78 228 -95 408 -95 206 -1 241 11 590 201 309 168 727 479 796 593 19 31 30
60 23 60 -3 0 -61 -54 -127 -119 -267 -263 -579 -470 -863 -574 -55 -20 -107
-37 -115 -36 -8 0 33 17 91 38 166 59 270 113 438 225 182 120 310 225 472
383 63 62 115 113 115 113 0 0 0 -105 1 -233z m-2082 153 c-15 -28 -29 -48
-32 -45 -3 2 1 11 7 19 7 8 10 19 7 24 -5 8 28 52 40 52 3 0 -7 -23 -22 -50z
m1126 29 c0 -6 -4 -7 -10 -4 -5 3 -10 11 -10 16 0 6 5 7 10 4 6 -3 10 -11 10
-16z m84 -65 c3 -8 2 -12 -4 -9 -6 3 -10 10 -10 16 0 14 7 11 14 -7z m70 0 c3
-8 2 -12 -4 -9 -6 3 -10 10 -10 16 0 14 7 11 14 -7z m-224 -67 c0 -10 -4 -15
-10 -12 -5 3 -10 18 -10 33 0 21 2 24 10 12 5 -8 10 -23 10 -33z m-713 -59
c-3 -8 -6 -5 -6 6 -1 11 2 17 5 13 3 -3 4 -12 1 -19z m520 0 c-3 -8 -6 -5 -6
6 -1 11 2 17 5 13 3 -3 4 -12 1 -19z m-344 -13 c-3 -9 -8 -14 -10 -11 -3 3 -2
9 2 15 9 16 15 13 8 -4z m457 -28 c0 -16 -18 3 -23 25 -6 22 -5 22 8 4 8 -11
15 -24 15 -29z m-63 11 c-3 -8 -6 -5 -6 6 -1 11 2 17 5 13 3 -3 4 -12 1 -19z
m-544 -3 c-3 -9 -8 -14 -10 -11 -3 3 -2 9 2 15 9 16 15 13 8 -4z m-323 -361
c0 -7 -58 25 -65 36 -3 5 10 1 29 -11 20 -12 36 -23 36 -25z m136 -72 c-5 -4
-106 46 -106 53 0 3 25 -7 55 -22 30 -15 53 -29 51 -31z m727 -69 c-7 -2 -19
-2 -25 0 -7 3 -2 5 12 5 14 0 19 -2 13 -5z m-46 -9 c-3 -3 -12 -4 -19 -1 -8 3
-5 6 6 6 11 1 17 -2 13 -5z m-340 -20 c-3 -3 -12 -4 -19 -1 -8 3 -5 6 6 6 11
1 17 -2 13 -5z m228 -5 c-22 -4 -80 -7 -130 -7 l-90 2 95 6 c52 3 111 7 130 7
l35 1 -40 -9z m-258 -1335 c-3 -3 -12 -4 -19 -1 -8 3 -5 6 6 6 11 1 17 -2 13
-5z"/>
<path d="M5240 8950 c-129 -16 -303 -69 -327 -98 -8 -9 -12 -11 -8 -4 10 20
-3 14 -14 -7 -12 -21 -23 -23 135 28 186 60 308 64 673 21 326 -38 312 -36
357 -66 21 -15 33 -20 26 -12 -6 8 -9 17 -6 20 9 9 -143 56 -251 77 -181 36
-469 56 -585 41z"/>
<path d="M4715 8814 c-44 -13 -134 -33 -200 -45 -130 -23 -175 -40 -182 -70
-3 -10 -12 -20 -19 -20 -27 -3 -32 -4 -39 -11 -4 -3 5 -5 19 -4 31 4 31 3 9
-32 -13 -20 -7 -16 22 13 32 31 58 46 125 67 47 15 108 34 135 43 28 9 86 28
130 42 44 14 84 29 90 34 13 13 2 11 -90 -17z m-128 -50 c-3 -3 -12 -4 -19 -1
-8 3 -5 6 6 6 11 1 17 -2 13 -5z"/>
<path d="M6250 8653 c0 -4 56 -62 125 -128 100 -96 125 -126 125 -148 0 -15 4
-27 10 -27 5 0 7 -7 4 -15 -4 -8 -2 -15 4 -15 6 0 15 -12 21 -27 l11 -28 -5
30 c-6 35 -87 201 -95 194 -15 -13 -164 126 -154 143 4 6 2 8 -4 4 -6 -3 -18
1 -26 10 -9 8 -16 12 -16 7z"/>
<path d="M6316 8650 c7 -14 29 -39 92 -107 12 -13 22 -20 22 -16 0 4 -28 37
-61 73 -33 36 -57 58 -53 50z"/>
<path d="M6552 8215 c0 -16 2 -22 5 -12 2 9 2 23 0 30 -3 6 -5 -1 -5 -18z"/>
<path d="M6561 8114 c0 -11 3 -14 6 -6 3 7 2 16 -1 19 -3 4 -6 -2 -5 -13z"/>
<path d="M5377 7456 c-81 -30 -159 -103 -156 -146 1 -11 3 -10 6 2 5 18 42 21
54 4 4 -5 22 3 41 17 45 34 102 54 210 73 72 12 113 13 235 4 222 -16 293 -28
468 -80 173 -51 225 -64 225 -52 0 11 -354 111 -470 132 -265 49 -549 70 -613
46z"/>
<path d="M5738 7313 c7 -3 16 -2 19 1 4 3 -2 6 -13 5 -11 0 -14 -3 -6 -6z"/>
<path d="M5623 7290 c-55 -16 -123 -53 -123 -66 0 -2 24 8 53 22 28 15 79 35
112 45 33 9 51 17 40 17 -11 0 -48 -8 -82 -18z"/>
<path d="M5715 7285 c-77 -21 -252 -114 -271 -144 -9 -14 -11 -20 -3 -13 26
24 28 11 3 -25 -13 -20 -23 -41 -21 -47 8 -26 112 -54 215 -58 117 -4 103 8
-21 18 -109 9 -149 25 -144 59 6 48 113 135 165 135 16 0 21 -10 27 -47 15
-103 67 -154 171 -168 60 -8 97 7 138 55 27 33 62 133 51 150 -8 13 11 13 38
-1 38 -20 107 -80 107 -93 0 -35 -108 -96 -190 -106 l-55 -7 55 -1 c58 -2 114
18 173 60 17 13 36 23 42 23 20 2 45 17 45 29 -1 12 -184 144 -228 163 -21 9
-23 12 -8 13 11 0 48 -14 83 -31 35 -17 66 -29 69 -27 2 3 -29 20 -68 39 -70
32 -79 34 -198 36 -82 1 -142 -3 -175 -12z m189 -58 c9 -15 7 -21 -8 -32 -22
-17 -46 -4 -46 25 0 35 34 39 54 7z m-443 -150 c-6 -8 -8 -17 -4 -20 3 -4 1
-7 -5 -7 -14 0 -14 2 -6 24 3 9 11 16 16 16 7 0 6 -5 -1 -13z"/>
<path d="M4480 7220 c34 -11 60 -11 35 0 -11 5 -29 8 -40 8 -16 0 -15 -2 5 -8z"/>
<path d="M4230 7181 c-72 -31 -250 -146 -250 -161 0 -5 7 -7 15 -4 8 4 15 10
15 14 0 4 8 11 18 14 11 5 8 -2 -10 -20 l-27 -27 77 -41 77 -40 140 0 c77 0
124 -3 105 -7 -23 -4 -27 -7 -12 -8 12 0 75 11 140 25 91 20 122 31 140 51 24
27 28 61 10 96 -6 12 -14 29 -18 37 -4 8 -22 26 -41 38 -19 13 -33 28 -31 34
1 5 -1 7 -6 4 -5 -3 -30 1 -57 9 -27 8 -87 15 -134 15 -72 -1 -97 -5 -151 -29z
m265 -41 c0 -30 -35 -40 -55 -15 -10 12 -10 18 0 30 20 25 55 15 55 -15z
m-261 -11 c-23 -38 11 -145 57 -177 10 -7 19 -17 19 -21 0 -11 -102 -2 -156
14 -45 13 -114 54 -114 67 0 14 87 81 135 104 55 26 70 29 59 13z m410 -64
c34 -52 12 -97 -54 -108 -19 -4 -46 -9 -60 -13 l-25 -8 27 25 c30 27 68 95 68
121 0 23 24 13 44 -17z"/>
<path d="M4933 7240 c-13 -5 -23 -11 -23 -14 0 -6 60 11 68 19 8 8 -20 5 -45
-5z"/>
<path d="M5040 7230 c0 -5 5 -10 11 -10 5 0 7 5 4 10 -3 6 -8 10 -11 10 -2 0
-4 -4 -4 -10z"/>
<path d="M4930 7210 c-11 -7 -5 -8 20 -4 43 8 51 14 19 14 -13 0 -31 -5 -39
-10z"/>
<path d="M6762 6765 c0 -16 2 -22 5 -12 2 9 2 23 0 30 -3 6 -5 -1 -5 -18z"/>
<path d="M6770 6715 c0 -5 5 -17 10 -25 5 -8 10 -10 10 -5 0 6 -5 17 -10 25
-5 8 -10 11 -10 5z"/>
<path d="M5436 6494 c13 -58 10 -125 -6 -159 -8 -16 -39 -46 -68 -65 -58 -38
-55 -52 5 -22 83 43 114 115 93 216 -6 31 -16 59 -22 62 -8 5 -8 -5 -2 -32z"/>
<path d="M4595 6457 c-34 -81 -9 -169 57 -203 30 -16 142 -29 117 -13 -25 15
50 17 109 2 41 -10 76 -12 100 -7 20 4 66 7 101 6 46 -1 79 5 124 23 33 14 68
25 76 25 32 0 100 36 110 58 12 25 14 24 -54 41 -50 13 -58 14 -50 1 4 -6 -14
-10 -47 -10 -35 0 -71 -8 -107 -25 -30 -14 -56 -23 -59 -21 -5 5 53 32 113 52
62 20 9 16 -75 -6 -162 -43 -175 -44 -263 -27 -54 10 -97 13 -127 7 l-45 -7
45 -2 c25 -2 63 -11 85 -21 49 -23 42 -25 -15 -5 -56 20 -106 19 -114 -1 -9
-23 0 -32 45 -44 23 -6 39 -13 36 -16 -2 -3 -24 2 -48 10 l-44 15 30 -25 c39
-32 25 -31 -24 2 -60 39 -86 122 -61 190 16 41 2 42 -15 1z m604 -141 c-2 -2
-22 -6 -44 -9 -27 -4 -35 -3 -25 3 14 9 79 15 69 6z"/>
<path d="M5421 6384 c0 -11 3 -14 6 -6 3 7 2 16 -1 19 -3 4 -6 -2 -5 -13z"/>
<path d="M4650 6330 c-9 -6 -10 -10 -3 -10 6 0 15 5 18 10 8 12 4 12 -15 0z"/>
<path d="M5373 6177 c17 -14 16 -15 -8 -21 -17 -4 -31 -1 -41 9 -20 20 -25 19
-17 -2 7 -17 6 -17 -20 0 -33 21 -38 21 -31 0 5 -16 3 -15 -10 1 -20 24 -34
13 -15 -11 13 -17 13 -17 -6 -1 -13 10 -30 14 -47 11 -31 -6 -34 -13 -16 -31
18 -18 -3 -14 -24 5 -23 20 -106 22 -120 2 -8 -11 -9 -10 -4 4 7 22 -29 24
-38 2 -3 -8 -15 -15 -26 -15 -11 0 -20 7 -20 15 0 8 -4 15 -10 15 -5 0 -10
-13 -10 -29 0 -17 -5 -33 -12 -37 -7 -4 -8 -3 -4 4 4 6 1 21 -6 34 -7 13 -14
25 -15 27 -3 5 -29 -22 -36 -39 -4 -8 -5 -1 -1 15 5 29 5 29 -11 10 l-17 -20
6 20 c5 18 4 17 -14 -4 -11 -13 -20 -20 -20 -16 0 4 -8 1 -17 -6 -11 -10 -14
-10 -9 -1 4 6 2 12 -3 12 -6 0 -11 -4 -11 -10 0 -21 -20 -9 -21 13 0 17 -4 13
-18 -17 -11 -26 -20 -36 -25 -28 -4 7 -4 17 -1 22 4 6 -13 -3 -37 -19 -45 -31
-61 -33 -36 -4 32 38 30 46 -4 14 -20 -19 -34 -40 -32 -46 3 -6 -2 -12 -11
-12 -11 0 -15 6 -12 19 3 10 1 16 -4 12 -5 -3 -9 -11 -9 -19 0 -8 -9 -20 -20
-28 -11 -8 -18 -16 -15 -18 2 -3 -5 -5 -15 -5 -18 0 -18 2 -5 23 28 42 15 33
-60 -43 -41 -42 -75 -72 -75 -67 0 5 12 20 26 34 14 13 33 38 41 54 14 27 12
26 -28 -13 -24 -23 -61 -59 -83 -80 l-39 -37 24 34 c49 69 51 75 7 29 -51 -53
-62 -59 -53 -25 6 21 5 21 -7 2 -6 -11 -12 -50 -11 -88 0 -53 -3 -67 -13 -63
-8 3 -14 1 -14 -4 0 -6 5 -10 11 -10 6 0 9 -6 6 -12 -2 -7 -1 -23 4 -34 6 -17
13 -20 33 -17 16 3 26 1 26 -6 0 -8 11 -11 28 -9 22 2 27 8 27 31 l-1 27 116
0 c63 0 167 5 230 10 63 5 279 17 480 25 364 15 541 27 655 45 112 18 128 10
80 -42 l-25 -27 32 -17 c21 -11 46 -15 77 -11 38 4 52 12 84 47 26 30 37 52
37 74 0 48 -12 106 -20 101 -4 -2 -13 8 -19 22 -9 20 -14 24 -21 14 -6 -11 -9
-9 -14 5 -3 11 -27 39 -52 64 -40 38 -46 41 -39 20 7 -21 0 -18 -51 25 -32 28
-55 45 -51 38 4 -6 4 -18 1 -27 -5 -14 -9 -14 -35 0 -16 8 -34 12 -38 9 -5 -3
-16 2 -24 10 -18 17 -31 20 -22 5 24 -39 -47 -16 -102 33 -23 21 -33 11 -11
-11 15 -15 19 -42 7 -42 -5 0 -9 6 -9 14 0 7 -7 19 -15 26 -18 15 -18 10 -5
-24 6 -17 6 -26 0 -26 -6 0 -10 7 -10 15 0 8 -9 19 -19 25 -31 16 -36 12 -15
-12 19 -22 19 -22 0 -8 -11 8 -25 28 -33 45 l-14 30 5 -34 c5 -26 3 -31 -7
-24 -6 6 -24 13 -39 17 -16 3 -28 13 -28 21 0 8 -4 15 -9 15 -5 0 -18 3 -28 6
-17 5 -17 5 0 -9z m78 -64 c13 -17 13 -17 -6 -3 -11 8 -22 16 -24 17 -2 2 0 3
6 3 6 0 17 -8 24 -17z m-593 -18 c-6 -14 -13 -23 -15 -21 -5 5 15 46 22 46 3
0 -1 -11 -7 -25z m812 -17 c0 -12 -6 -9 -26 13 -19 22 -19 22 4 8 12 -8 22
-17 22 -21z m181 5 c13 -16 12 -17 -3 -4 -10 7 -18 15 -18 17 0 8 8 3 21 -13z
m-71 -3 c0 -5 -2 -10 -4 -10 -3 0 -8 5 -11 10 -3 6 -1 10 4 10 6 0 11 -4 11
-10z m-88 -169 c53 -11 109 -26 124 -34 33 -17 31 -18 -96 -41 -127 -22 -251
-34 -490 -47 -247 -13 -850 -26 -850 -19 2 45 244 116 490 144 189 22 235 24
495 20 180 -2 251 -7 327 -23z m265 -137 c-3 -3 -12 -4 -19 -1 -8 3 -5 6 6 6
11 1 17 -2 13 -5z"/>
<path d="M5090 5923 c-102 -5 -339 -33 -410 -49 -90 -20 -263 -74 -274 -85 -6
-5 23 -9 73 -9 45 0 80 4 77 9 -7 11 130 45 282 70 218 36 331 43 547 33 173
-8 205 -12 237 -30 33 -19 43 -20 107 -10 39 6 71 14 71 18 0 11 -167 40 -285
51 -94 8 -280 9 -425 2z"/>
<path d="M6551 6144 c0 -11 3 -14 6 -6 3 7 2 16 -1 19 -3 4 -6 -2 -5 -13z"/>
<path d="M6542 6060 c0 -14 2 -19 5 -12 2 6 2 18 0 25 -3 6 -5 1 -5 -13z"/>
<path d="M6492 5970 c0 -19 2 -27 5 -17 2 9 2 25 0 35 -3 9 -5 1 -5 -18z"/>
<path d="M6375 5931 c6 -45 24 -91 25 -61 0 8 -7 35 -15 60 l-15 45 5 -44z"/>
<path d="M6471 5934 c0 -11 3 -14 6 -6 3 7 2 16 -1 19 -3 4 -6 -2 -5 -13z"/>
<path d="M3955 5869 c-4 -6 -5 -12 -2 -15 2 -3 7 2 10 11 7 17 1 20 -8 4z"/>
<path d="M4055 5759 c-4 -6 -5 -12 -2 -15 2 -3 7 2 10 11 7 17 1 20 -8 4z"/>
<path d="M4334 5655 c-10 -8 -14 -15 -8 -15 6 0 17 7 24 15 16 19 9 19 -16 0z"/>
<path d="M5147 5550 c-9 -11 -22 -20 -29 -20 -8 0 -4 7 7 16 19 15 18 16 -20
9 -22 -4 -46 -12 -53 -17 -7 -6 -15 -8 -19 -4 -3 3 -1 6 5 6 7 0 12 4 12 10 0
11 -47 -7 -72 -28 -20 -17 -25 -3 -5 17 6 7 -3 4 -22 -7 -27 -16 -39 -18 -54
-10 -14 7 -17 7 -13 -1 4 -5 -4 -15 -16 -22 -21 -11 -22 -11 -9 4 8 10 9 17 3
17 -6 0 -14 -4 -17 -10 -3 -5 -11 -10 -17 -10 -6 0 -1 12 13 26 23 26 23 26 2
15 -12 -6 -39 -28 -58 -48 -20 -20 -33 -29 -29 -20 6 16 4 16 -24 0 -32 -19
-61 -63 -41 -63 6 0 8 -7 5 -16 -5 -14 -4 -15 9 -4 21 17 31 5 14 -17 -12 -16
-12 -17 1 -7 22 16 52 25 45 14 -3 -6 -1 -10 5 -10 6 0 8 -4 5 -10 -3 -5 0
-11 7 -11 7 -1 20 -3 28 -4 8 -1 25 -3 37 -4 17 -1 21 -5 16 -18 -5 -15 -3
-16 8 -5 19 18 34 15 18 -5 -13 -15 -12 -15 9 -4 12 6 22 9 22 5 0 -3 7 -1 15
6 21 17 32 4 17 -20 -19 -31 -1 -23 30 13 21 23 26 26 18 9 -20 -42 -4 -48 19
-7 12 22 19 31 15 20 -14 -38 -16 -85 -5 -85 6 0 11 10 11 23 0 12 5 29 10 37
7 11 8 2 4 -27 -4 -29 -3 -43 5 -43 6 0 11 9 11 21 0 25 17 59 30 59 6 0 10
-9 10 -21 0 -15 4 -19 16 -15 9 3 18 6 20 6 2 0 4 8 4 19 0 14 7 18 28 16 15
-1 34 -4 42 -7 47 -18 52 -18 46 -2 -5 13 -2 15 18 10 14 -3 28 -1 31 4 4 6 3
10 -2 9 -19 -3 -23 2 -11 15 8 8 17 10 24 5 12 -10 84 0 84 12 0 5 -5 9 -12 9
-6 0 -8 3 -5 7 4 3 16 -2 26 -11 19 -17 19 -17 17 8 -3 25 16 42 35 30 5 -3 8
15 7 41 0 25 -6 49 -11 52 -6 4 -8 0 -4 -10 3 -10 2 -17 -3 -17 -6 0 -10 4
-10 8 0 5 -18 16 -40 25 -26 10 -38 11 -34 4 5 -8 2 -8 -7 1 -18 17 -30 15
-23 -3 4 -8 2 -15 -3 -15 -14 0 -44 35 -37 43 3 3 -3 3 -14 0 -11 -2 -23 0
-26 6 -4 6 -15 11 -24 11 -10 -1 0 -10 21 -21 20 -11 37 -21 37 -24 0 -7 -95
30 -108 43 -18 16 -25 15 -45 -8z m-127 -24 c0 -2 -7 -7 -16 -10 -8 -3 -12 -2
-9 4 6 10 25 14 25 6z m414 -52 c3 -8 2 -12 -4 -9 -6 3 -10 10 -10 16 0 14 7
11 14 -7z m31 -42 c-3 -3 -11 0 -18 7 -9 10 -8 11 6 5 10 -3 15 -9 12 -12z
m-120 -60 c-3 -3 -11 0 -18 7 -9 10 -8 11 6 5 10 -3 15 -9 12 -12z m-100 -32
c3 -5 1 -10 -4 -10 -6 0 -11 5 -11 10 0 6 2 10 4 10 3 0 8 -4 11 -10z m-118
-42 c-3 -7 -5 -2 -5 12 0 14 2 19 5 13 2 -7 2 -19 0 -25z"/>
<path d="M5991 5524 c0 -11 3 -14 6 -6 3 7 2 16 -1 19 -3 4 -6 -2 -5 -13z"/>
<path d="M4347 5435 c-15 -14 -24 -25 -19 -25 5 0 19 11 32 25 30 32 23 32
-13 0z"/>
<path d="M5487 5180 c6 -66 19 -117 29 -108 2 3 0 17 -6 32 -14 38 -13 69 3
60 9 -6 9 -4 1 7 -6 8 -16 28 -22 44 -9 25 -10 19 -5 -35z"/>
<path d="M5360 5119 c0 -5 5 -7 10 -4 6 3 10 8 10 11 0 2 -4 4 -10 4 -5 0 -10
-5 -10 -11z"/>
<path d="M4856 5086 c-4 -21 -5 -40 -2 -43 7 -8 18 42 14 64 -3 11 -7 3 -12
-21z"/>
<path d="M7162 6766 c-82 -91 -112 -143 -112 -196 0 -26 -7 -67 -16 -91 -11
-32 -14 -63 -10 -112 7 -79 -4 -107 -59 -156 -38 -33 -67 -95 -39 -84 7 3 12
10 11 15 -1 6 16 20 38 32 47 25 82 82 90 146 3 25 13 60 22 78 16 32 24 88
23 162 0 52 9 80 25 80 8 0 15 -5 15 -11 0 -6 7 -9 15 -5 10 4 22 -5 36 -27
17 -28 19 -46 17 -135 -4 -139 1 -137 53 18 23 68 28 102 28 170 0 47 -5 94
-10 105 -6 14 -8 0 -4 -44 5 -59 4 -63 -10 -45 -8 10 -15 24 -15 31 0 6 -6 13
-12 15 -9 3 -7 12 6 33 l19 28 -31 -22 c-17 -11 -56 -45 -86 -74 -55 -52 -56
-53 -56 -110 0 -55 -24 -137 -36 -124 -3 3 0 15 6 28 7 12 13 49 14 83 2 56
25 116 45 116 3 0 32 25 64 55 32 29 67 57 78 60 29 9 6 35 -31 35 -21 0 -40
-13 -78 -54z m-105 -358 c-3 -8 -6 -5 -6 6 -1 11 2 17 5 13 3 -3 4 -12 1 -19z"/>
<path d="M7066 6265 c-9 -26 -7 -32 5 -12 6 10 9 21 6 23 -2 3 -7 -2 -11 -11z"/>
<path d="M6910 5867 c8 -8 26 -18 40 -22 32 -9 25 -2 -20 20 -27 13 -32 14
-20 2z"/>
<path d="M6581 4840 c-1 -36 8 -125 19 -198 34 -224 53 -282 95 -282 14 0 25
5 25 10 0 6 7 10 15 10 17 0 20 16 6 25 -42 25 -107 220 -126 374 -7 58 -14
102 -15 96 -1 -5 -5 -1 -10 10 -6 14 -9 1 -9 -45z"/>
<path d="M3495 8301 c-843 -498 -1475 -1244 -1763 -2081 -295 -857 -229 -1810
182 -2645 64 -129 182 -334 222 -383 1 -2 17 4 35 14 159 82 609 215 1016 299
159 33 170 37 267 94 87 51 209 112 346 173 33 15 37 22 78 146 48 145 110
279 178 385 57 87 164 200 223 235 l43 25 -6 53 c-9 81 -69 235 -119 311 -25
37 -72 97 -103 133 -125 141 -227 330 -288 532 -59 196 -87 408 -102 771 l-6
168 -53 52 c-63 64 -85 116 -128 312 -29 131 -33 142 -62 160 -53 35 -67 76
-63 195 3 84 8 113 26 147 30 57 85 100 149 114 62 14 58 -7 38 214 -8 88 -15
265 -15 393 0 127 -3 232 -7 231 -5 0 -44 -22 -88 -48z"/>
<path d="M7224 7964 c25 -84 61 -586 54 -766 l-6 -127 33 -11 c87 -29 164
-142 186 -274 16 -96 6 -312 -18 -401 -42 -151 -143 -333 -232 -420 -23 -21
-41 -45 -41 -52 0 -27 -39 -90 -78 -125 -61 -55 -136 -71 -203 -43 -13 5 -17
-2 -21 -37 -3 -24 -36 -158 -74 -298 -64 -239 -68 -262 -68 -360 0 -58 5 -130
12 -161 l13 -56 88 5 c163 9 288 -49 345 -161 25 -48 30 -73 36 -164 4 -69 12
-119 23 -139 22 -42 78 -112 175 -218 85 -92 131 -169 153 -255 10 -42 16 -50
41 -55 48 -9 292 -104 498 -192 107 -46 198 -80 201 -76 28 29 162 368 213
538 111 372 153 698 143 1116 -9 397 -65 689 -199 1047 -211 565 -534 1045
-974 1452 -135 124 -308 259 -300 233z"/>
</g>
</svg>
